<?xml version="1.0" encoding="UTF-8"?>
<svg width="1200" height="800" viewBox="0 0 1200 800" xmlns="http://www.w3.org/2000/svg">
  <defs>
    <linearGradient id="skyGradient" x1="0%" y1="0%" x2="0%" y2="100%">
      <stop offset="0%" style="stop-color:#4A90E2;stop-opacity:1" />
      <stop offset="100%" style="stop-color:#81C3F5;stop-opacity:1" />
    </linearGradient>
    <linearGradient id="riverGradient" x1="0%" y1="0%" x2="0%" y2="100%">
      <stop offset="0%" style="stop-color:#2196F3;stop-opacity:0.8" />
      <stop offset="100%" style="stop-color:#1976D2;stop-opacity:0.9" />
    </linearGradient>
  </defs>
  
  <!-- Sky -->
  <rect width="1200" height="800" fill="url(#skyGradient)"/>
  
  <!-- Mountains -->
  <path d="M0,400 L300,100 L600,450 L900,150 L1200,400 L1200,800 L0,800 Z" fill="#557B83"/>
  
  <!-- River -->
  <path d="M0,500 C200,450 400,550 600,500 C800,450 1000,550 1200,500 L1200,800 L0,800 Z" fill="url(#riverGradient)"/>
  
  <!-- Trees -->
  <g transform="translate(100,350)">
    <circle cx="0" cy="0" r="30" fill="#2E7D32"/>
    <circle cx="15" cy="-20" r="25" fill="#388E3C"/>
    <circle cx="-15" cy="-20" r="25" fill="#43A047"/>
  </g>
  <g transform="translate(900,380)">
    <circle cx="0" cy="0" r="35" fill="#2E7D32"/>
    <circle cx="20" cy="-25" r="30" fill="#388E3C"/>
    <circle cx="-20" cy="-25" r="30" fill="#43A047"/>
  </g>
</svg>
